<svg xmlns="http://www.w3.org/2000/svg" version="1.1" xmlns:xlink="http://www.w3.org/1999/xlink" width="1000" height="1000" viewBox="0 0 1000 1000"><g transform="matrix(1,0,0,1,-0.14221556886212738,-0.14221556886229791)"><svg viewBox="0 0 334 334" preserveAspectRatio="xMidYMid meet" height="1000" width="1000" xmlns="http://www.w3.org/2000/svg" xmlns:xlink="http://www.w3.org/1999/xlink"><g id="tight-bounds" transform="matrix(1,0,0,1,0.04749999999998522,0.04750000000001364)"><svg viewBox="0 0 333.90454557049503 333.90454557049503" height="333.90454557049503" width="333.90454557049503"><g><svg></svg></g><g><svg viewBox="0 0 333.90454557049503 333.90454557049503" height="333.90454557049503" width="333.90454557049503"><g><path d="M0 166.952c0-92.205 74.747-166.952 166.952-166.952 92.205 0 166.952 74.747 166.953 166.952 0 92.205-74.747 166.952-166.953 166.953-92.205 0-166.952-74.747-166.952-166.953zM166.952 331.84c91.065 0 164.888-73.823 164.888-164.888 0-91.065-73.823-164.888-164.888-164.887-91.065 0-164.888 73.823-164.887 164.887 0 91.065 73.823 164.888 164.887 164.888z" fill="#528265" stroke="transparent"></path><ellipse rx="160.27418187383762" ry="160.27418187383762" cx="166.95227278524752" cy="166.95227278524752" fill="#528265" stroke="transparent" stroke-width="0" fill-opacity="1"></ellipse></g><g transform="matrix(1,0,0,1,66.35843941087276,71.17305217166896)"><svg viewBox="0 0 201.1876667487495 191.55844122715712" height="191.55844122715712" width="201.1876667487495"><g><svg viewBox="0 0 213.1584412271571 202.9562716032572" height="191.55844122715712" width="201.1876667487495"><g transform="matrix(1,0,0,1,0,150.55725034747778)"><svg viewBox="0 0 213.1584412271571 52.399021255779424" height="52.399021255779424" width="213.1584412271571"><g id="textblocktransform"><svg viewBox="0 0 213.1584412271571 52.399021255779424" height="52.399021255779424" width="213.1584412271571" id="textblock"><g><svg viewBox="0 0 213.1584412271571 52.399021255779424" height="52.399021255779424" width="213.1584412271571"><g transform="matrix(1,0,0,1,0,0)"><svg width="213.1584412271571" viewBox="3.6499998569488525 -37.150001525878906 329.0999450683594 77.9000015258789" height="52.399021255779424"><svg></svg><svg></svg><g class="undefined-text-0" id="text-0"><path d="M25.4 0h-13.95c-1.567 0-2.94-0.243-4.12-0.73-1.187-0.48-2.097-1.297-2.73-2.45-0.633-1.147-0.95-2.687-0.95-4.62v0-29.05h5.05v28.3c0 1.067 0.183 1.89 0.55 2.47 0.367 0.587 0.85 0.98 1.45 1.18 0.6 0.2 1.25 0.3 1.95 0.3v0h12.75zM33.3 0h-5.2l12.3-36.85h6.4l12.3 36.85h-5.25l-3.25-9.65h-14.1zM43.55-32.45l-5.85 18.25h11.65zM75.9 0.3v0c-2.2 0-4.117-0.25-5.75-0.75-1.633-0.5-3-1.41-4.1-2.73-1.1-1.313-1.917-3.213-2.45-5.7-0.533-2.48-0.8-5.703-0.8-9.67v0c0-3.733 0.277-6.817 0.83-9.25 0.547-2.433 1.38-4.333 2.5-5.7 1.113-1.367 2.503-2.317 4.17-2.85 1.667-0.533 3.6-0.8 5.8-0.8v0c1.233 0 2.507 0.067 3.82 0.2 1.32 0.133 2.587 0.307 3.8 0.52 1.22 0.22 2.313 0.463 3.28 0.73v0 3.8c-0.6-0.1-1.417-0.21-2.45-0.33-1.033-0.113-2.2-0.21-3.5-0.29-1.3-0.087-2.65-0.13-4.05-0.13v0c-1.667 0-3.083 0.19-4.25 0.57-1.167 0.387-2.117 1.087-2.85 2.1-0.733 1.02-1.267 2.453-1.6 4.3-0.333 1.853-0.5 4.247-0.5 7.18v0c0 2.967 0.157 5.39 0.47 7.27 0.32 1.887 0.83 3.337 1.53 4.35 0.7 1.02 1.633 1.72 2.8 2.1 1.167 0.387 2.617 0.58 4.35 0.58v0c2.5 0 4.55-0.067 6.15-0.2 1.6-0.133 2.9-0.267 3.9-0.4v0 3.85c-1 0.233-2.1 0.45-3.3 0.65-1.2 0.2-2.46 0.35-3.78 0.45-1.313 0.1-2.653 0.15-4.02 0.15zM97.85 0h-5.05v-36.85h5.05v16.25h5.95l9.35-16.25h5.35l-10.7 18.45 10.9 18.4h-5.4l-9.5-16.1h-5.95zM128.75 0h-5.05v-36.85h5.05zM141.65 0h-5.05v-36.85h4.1l18.05 28.25v-28.25h5v36.85h-4.05l-18.05-28.25zM181.3 0.25v0c-2.333 0.033-4.257-0.35-5.77-1.15-1.52-0.8-2.713-1.983-3.58-3.55-0.867-1.567-1.473-3.527-1.82-5.88-0.353-2.347-0.53-5.07-0.53-8.17v0c0-3.067 0.193-5.767 0.58-8.1 0.38-2.333 1.037-4.283 1.97-5.85 0.933-1.567 2.243-2.743 3.93-3.53 1.68-0.78 3.787-1.17 6.32-1.17v0c1.433 0 2.85 0.05 4.25 0.15 1.4 0.1 2.76 0.26 4.08 0.48 1.313 0.213 2.553 0.453 3.72 0.72v0 3.85c-0.667-0.1-1.6-0.2-2.8-0.3-1.2-0.1-2.523-0.19-3.97-0.27-1.453-0.087-2.93-0.13-4.43-0.13v0c-2.333 0-4.117 0.457-5.35 1.37-1.233 0.92-2.09 2.42-2.57 4.5-0.487 2.087-0.73 4.863-0.73 8.33v0c0 2.767 0.133 5.057 0.4 6.87 0.267 1.82 0.7 3.253 1.3 4.3 0.6 1.053 1.427 1.803 2.48 2.25 1.047 0.453 2.37 0.68 3.97 0.68v0c1.533 0 3.06-0.183 4.58-0.55 1.513-0.367 2.803-0.733 3.87-1.1v0-9.75h-8.2v-3.85c0.667-0.1 1.46-0.183 2.38-0.25 0.913-0.067 1.88-0.127 2.9-0.18 1.013-0.047 2.037-0.07 3.07-0.07v0c0.933 0 1.793 0.017 2.58 0.05 0.78 0.033 1.487 0.083 2.12 0.15v0 19.9h-3.75l-0.75-2.55c-1.1 0.567-2.567 1.167-4.4 1.8-1.833 0.633-3.783 0.967-5.85 1zM225.1 0h-13.95c-1.567 0-2.94-0.243-4.12-0.73-1.187-0.48-2.097-1.297-2.73-2.45-0.633-1.147-0.95-2.687-0.95-4.62v0-29.05h5.05v28.3c0 1.067 0.183 1.89 0.55 2.47 0.367 0.587 0.85 0.98 1.45 1.18 0.6 0.2 1.25 0.3 1.95 0.3v0h12.75zM243.35 0.3v0c-2.4 0-4.507-0.233-6.32-0.7-1.82-0.467-3.337-1.333-4.55-2.6-1.22-1.267-2.13-3.133-2.73-5.6-0.6-2.467-0.9-5.7-0.9-9.7v0c0-4 0.3-7.243 0.9-9.73 0.6-2.48 1.517-4.38 2.75-5.7 1.233-1.313 2.75-2.213 4.55-2.7 1.8-0.48 3.9-0.72 6.3-0.72v0c2.467 0 4.61 0.24 6.43 0.72 1.813 0.487 3.32 1.387 4.52 2.7 1.2 1.32 2.1 3.22 2.7 5.7 0.6 2.487 0.9 5.73 0.9 9.73v0c0 4-0.3 7.233-0.9 9.7-0.6 2.467-1.507 4.333-2.72 5.6-1.22 1.267-2.737 2.133-4.55 2.6-1.82 0.467-3.947 0.7-6.38 0.7zM243.35-4.2v0c1.733 0 3.21-0.183 4.43-0.55 1.213-0.367 2.197-1.043 2.95-2.03 0.747-0.98 1.287-2.397 1.62-4.25 0.333-1.847 0.5-4.27 0.5-7.27v0c0-3.167-0.173-5.7-0.52-7.6-0.353-1.9-0.897-3.333-1.63-4.3-0.733-0.967-1.707-1.617-2.92-1.95-1.22-0.333-2.697-0.5-4.43-0.5v0c-1.633 0-3.05 0.167-4.25 0.5-1.2 0.333-2.183 0.983-2.95 1.95-0.767 0.967-1.34 2.4-1.72 4.3-0.387 1.9-0.58 4.433-0.58 7.6v0c0 3 0.16 5.423 0.48 7.27 0.313 1.853 0.847 3.27 1.6 4.25 0.747 0.987 1.73 1.663 2.95 2.03 1.213 0.367 2.703 0.55 4.47 0.55zM275.05 0.25v0c-2.333 0.033-4.257-0.35-5.77-1.15-1.52-0.8-2.713-1.983-3.58-3.55-0.867-1.567-1.473-3.527-1.82-5.88-0.353-2.347-0.53-5.07-0.53-8.17v0c0-3.067 0.193-5.767 0.58-8.1 0.38-2.333 1.037-4.283 1.97-5.85 0.933-1.567 2.243-2.743 3.93-3.53 1.68-0.78 3.787-1.17 6.32-1.17v0c1.433 0 2.85 0.05 4.25 0.15 1.4 0.1 2.76 0.26 4.08 0.48 1.313 0.213 2.553 0.453 3.72 0.72v0 3.85c-0.667-0.1-1.6-0.2-2.8-0.3-1.2-0.1-2.523-0.19-3.97-0.27-1.453-0.087-2.93-0.13-4.43-0.13v0c-2.333 0-4.117 0.457-5.35 1.37-1.233 0.92-2.09 2.42-2.57 4.5-0.487 2.087-0.73 4.863-0.73 8.33v0c0 2.767 0.133 5.057 0.4 6.87 0.267 1.82 0.7 3.253 1.3 4.3 0.6 1.053 1.427 1.803 2.48 2.25 1.047 0.453 2.37 0.68 3.97 0.68v0c1.533 0 3.06-0.183 4.58-0.55 1.513-0.367 2.803-0.733 3.87-1.1v0-9.75h-8.2v-3.85c0.667-0.1 1.46-0.183 2.38-0.25 0.913-0.067 1.88-0.127 2.9-0.18 1.013-0.047 2.037-0.07 3.07-0.07v0c0.933 0 1.793 0.017 2.58 0.05 0.78 0.033 1.487 0.083 2.12 0.15v0 19.9h-3.75l-0.75-2.55c-1.1 0.567-2.567 1.167-4.4 1.8-1.833 0.633-3.783 0.967-5.85 1zM302.15 0h-5.05v-36.85h5.05zM321.65 0.3v0c-2.2 0-4.117-0.25-5.75-0.75-1.633-0.5-3-1.41-4.1-2.73-1.1-1.313-1.917-3.213-2.45-5.7-0.533-2.48-0.8-5.703-0.8-9.67v0c0-3.733 0.277-6.817 0.83-9.25 0.547-2.433 1.38-4.333 2.5-5.7 1.113-1.367 2.503-2.317 4.17-2.85 1.667-0.533 3.6-0.8 5.8-0.8v0c1.233 0 2.51 0.067 3.83 0.2 1.313 0.133 2.58 0.307 3.8 0.52 1.213 0.22 2.303 0.463 3.27 0.73v0 3.8c-0.6-0.1-1.417-0.21-2.45-0.33-1.033-0.113-2.2-0.21-3.5-0.29-1.3-0.087-2.65-0.13-4.05-0.13v0c-1.667 0-3.083 0.19-4.25 0.57-1.167 0.387-2.117 1.087-2.85 2.1-0.733 1.02-1.267 2.453-1.6 4.3-0.333 1.853-0.5 4.247-0.5 7.18v0c0 2.967 0.16 5.39 0.48 7.27 0.313 1.887 0.82 3.337 1.52 4.35 0.7 1.02 1.633 1.72 2.8 2.1 1.167 0.387 2.617 0.58 4.35 0.58v0c2.5 0 4.55-0.067 6.15-0.2 1.6-0.133 2.9-0.267 3.9-0.4v0 3.85c-1 0.233-2.1 0.45-3.3 0.65-1.2 0.2-2.457 0.35-3.77 0.45-1.32 0.1-2.663 0.15-4.03 0.15z" fill="#ffffff" fill-rule="nonzero" stroke="none" stroke-width="1" stroke-linecap="butt" stroke-linejoin="miter" stroke-miterlimit="10" stroke-dasharray="" stroke-dashoffset="0" font-family="none" font-weight="none" font-size="none" text-anchor="none" style="mix-blend-mode: normal" opacity="1"></path><path d="M11.85 40.65v0c-0.833 0-1.717-0.077-2.65-0.23-0.933-0.147-1.823-0.463-2.67-0.95-0.853-0.48-1.547-1.22-2.08-2.22-0.533-1-0.8-2.35-0.8-4.05v0-21.9c0-1.467 0.227-2.7 0.68-3.7 0.447-1 1.037-1.793 1.77-2.38 0.733-0.58 1.56-0.997 2.48-1.25 0.913-0.247 1.82-0.37 2.72-0.37v0c2.167 0.033 4.16 0.073 5.98 0.12 1.813 0.053 3.503 0.113 5.07 0.18 1.567 0.067 3.067 0.133 4.5 0.2v0 4.15h-14.2c-1.233 0-2.2 0.317-2.9 0.95-0.7 0.633-1.05 1.633-1.05 3v0 7.65l15.9 0.3v3.9l-15.9 0.35v7.55c0 1.133 0.193 1.983 0.58 2.55 0.38 0.567 0.88 0.95 1.5 1.15 0.613 0.2 1.27 0.3 1.97 0.3v0h14.1v4.15c-1.533 0.1-3.15 0.19-4.85 0.27-1.7 0.087-3.407 0.157-5.12 0.21-1.72 0.047-3.397 0.07-5.03 0.07zM38.75 40.45h-5.05v-36.85h4.1l18.05 28.25v-28.25h5v36.85h-4.05l-18.05-28.25zM80.8 40.45h-5.05v-32.35h-11v-4.5h27.05v4.5h-11zM103.95 40.65v0c-0.833 0-1.717-0.077-2.65-0.23-0.933-0.147-1.823-0.463-2.67-0.95-0.853-0.48-1.547-1.22-2.08-2.22-0.533-1-0.8-2.35-0.8-4.05v0-21.9c0-1.467 0.227-2.7 0.68-3.7 0.447-1 1.037-1.793 1.77-2.38 0.733-0.58 1.56-0.997 2.48-1.25 0.913-0.247 1.82-0.37 2.72-0.37v0c2.167 0.033 4.16 0.073 5.98 0.12 1.813 0.053 3.503 0.113 5.07 0.18 1.567 0.067 3.067 0.133 4.5 0.2v0 4.15h-14.2c-1.233 0-2.2 0.317-2.9 0.95-0.7 0.633-1.05 1.633-1.05 3v0 7.65l15.9 0.3v3.9l-15.9 0.35v7.55c0 1.133 0.193 1.983 0.58 2.55 0.38 0.567 0.88 0.95 1.5 1.15 0.613 0.2 1.27 0.3 1.97 0.3v0h14.1v4.15c-1.533 0.1-3.15 0.19-4.85 0.27-1.7 0.087-3.407 0.157-5.12 0.21-1.72 0.047-3.397 0.07-5.03 0.07zM130.3 40.45h-5.05v-36.85h14.75c1.267 0 2.493 0.15 3.68 0.45 1.18 0.3 2.237 0.85 3.17 1.65 0.933 0.8 1.667 1.923 2.2 3.37 0.533 1.453 0.8 3.347 0.8 5.68v0c0 1.9-0.2 3.483-0.6 4.75-0.4 1.267-0.923 2.273-1.57 3.02-0.653 0.753-1.37 1.32-2.15 1.7-0.787 0.387-1.563 0.68-2.33 0.88v0l7.35 15.35h-5.1l-6.8-14.65c-0.5 0-1.107-0.01-1.82-0.03-0.72-0.013-1.47-0.02-2.25-0.02-0.787 0-1.553-0.017-2.3-0.05-0.753-0.033-1.413-0.05-1.98-0.05v0zM130.3 8.1v13.65h8.9c0.8 0 1.533-0.093 2.2-0.28 0.667-0.18 1.26-0.53 1.78-1.05 0.513-0.513 0.92-1.23 1.22-2.15 0.3-0.913 0.45-2.087 0.45-3.52v0c0-1.4-0.15-2.533-0.45-3.4-0.3-0.867-0.717-1.533-1.25-2-0.533-0.467-1.133-0.793-1.8-0.98-0.667-0.18-1.383-0.27-2.15-0.27v0zM161 40.45h-5.05v-36.85h14.95c1.1 0 2.233 0.14 3.4 0.42 1.167 0.287 2.243 0.84 3.23 1.66 0.98 0.813 1.77 2.02 2.37 3.62 0.6 1.6 0.9 3.717 0.9 6.35v0c0 2.633-0.307 4.767-0.92 6.4-0.62 1.633-1.43 2.883-2.43 3.75-1 0.867-2.083 1.45-3.25 1.75-1.167 0.3-2.283 0.45-3.35 0.45v0c-0.533 0-1.257-0.017-2.17-0.05-0.92-0.033-1.88-0.083-2.88-0.15-1-0.067-1.933-0.133-2.8-0.2-0.867-0.067-1.533-0.133-2-0.2v0zM161 8.1v15.4h9.15c1.067 0 2.027-0.243 2.88-0.73 0.847-0.48 1.513-1.28 2-2.4 0.48-1.113 0.72-2.67 0.72-4.67v0c0-1.967-0.24-3.5-0.72-4.6-0.487-1.1-1.13-1.877-1.93-2.33-0.8-0.447-1.683-0.67-2.65-0.67v0zM191.45 40.45h-5.05v-36.85h14.75c1.267 0 2.49 0.15 3.67 0.45 1.187 0.3 2.247 0.85 3.18 1.65 0.933 0.8 1.667 1.923 2.2 3.37 0.533 1.453 0.8 3.347 0.8 5.68v0c0 1.9-0.2 3.483-0.6 4.75-0.4 1.267-0.927 2.273-1.58 3.02-0.647 0.753-1.36 1.32-2.14 1.7-0.787 0.387-1.563 0.68-2.33 0.88v0l7.35 15.35h-5.1l-6.8-14.65c-0.5 0-1.11-0.01-1.83-0.03-0.713-0.013-1.463-0.02-2.25-0.02-0.78 0-1.543-0.017-2.29-0.05-0.753-0.033-1.413-0.05-1.98-0.05v0zM191.45 8.1v13.65h8.9c0.8 0 1.533-0.093 2.2-0.28 0.667-0.18 1.257-0.53 1.77-1.05 0.52-0.513 0.93-1.23 1.23-2.15 0.3-0.913 0.45-2.087 0.45-3.52v0c0-1.4-0.15-2.533-0.45-3.4-0.3-0.867-0.717-1.533-1.25-2-0.533-0.467-1.133-0.793-1.8-0.98-0.667-0.18-1.383-0.27-2.15-0.27v0zM222.15 40.45h-5.05v-36.85h5.05zM240.1 40.75v0c-0.8 0-1.71-0.023-2.73-0.07-1.013-0.053-2.047-0.13-3.1-0.23-1.047-0.1-2.047-0.2-3-0.3-0.947-0.1-1.753-0.233-2.42-0.4v0-3.9c0.867 0.067 1.907 0.133 3.12 0.2 1.22 0.067 2.52 0.117 3.9 0.15 1.387 0.033 2.73 0.05 4.03 0.05v0c1.433 0 2.707-0.133 3.82-0.4 1.12-0.267 2.007-0.767 2.66-1.5 0.647-0.733 0.97-1.767 0.97-3.1v0-2.15c0-1.5-0.407-2.65-1.22-3.45-0.82-0.8-2.063-1.2-3.73-1.2v0h-3.75c-3.2 0-5.677-0.7-7.43-2.1-1.747-1.4-2.62-3.8-2.62-7.2v0-2c0-3.533 0.957-6.06 2.87-7.58 1.92-1.513 4.647-2.27 8.18-2.27v0c1.167 0 2.417 0.057 3.75 0.17 1.333 0.12 2.633 0.263 3.9 0.43 1.267 0.167 2.317 0.333 3.15 0.5v0 3.9c-1.5-0.1-3.177-0.21-5.03-0.33-1.847-0.113-3.587-0.17-5.22-0.17v0c-1.4 0-2.61 0.157-3.63 0.47-1.013 0.32-1.797 0.88-2.35 1.68-0.547 0.8-0.82 1.933-0.82 3.4v0 1.5c0 1.8 0.483 3.05 1.45 3.75 0.967 0.7 2.317 1.05 4.05 1.05v0h4.05c2.1 0 3.827 0.383 5.18 1.15 1.347 0.767 2.353 1.817 3.02 3.15 0.667 1.333 1 2.85 1 4.55v0 2.6c0 2.6-0.533 4.6-1.6 6-1.067 1.4-2.5 2.357-4.3 2.87-1.8 0.52-3.85 0.78-6.15 0.78zM266.75 40.65v0c-0.833 0-1.717-0.077-2.65-0.23-0.933-0.147-1.827-0.463-2.68-0.95-0.847-0.48-1.537-1.22-2.07-2.22-0.533-1-0.8-2.35-0.8-4.05v0-21.9c0-1.467 0.223-2.7 0.67-3.7 0.453-1 1.047-1.793 1.78-2.38 0.733-0.58 1.557-0.997 2.47-1.25 0.92-0.247 1.83-0.37 2.73-0.37v0c2.167 0.033 4.157 0.073 5.97 0.12 1.82 0.053 3.513 0.113 5.08 0.18 1.567 0.067 3.067 0.133 4.5 0.2v0 4.15h-14.2c-1.233 0-2.2 0.317-2.9 0.95-0.7 0.633-1.05 1.633-1.05 3v0 7.65l15.9 0.3v3.9l-15.9 0.35v7.55c0 1.133 0.19 1.983 0.57 2.55 0.387 0.567 0.887 0.95 1.5 1.15 0.62 0.2 1.28 0.3 1.98 0.3v0h14.1v4.15c-1.533 0.1-3.15 0.19-4.85 0.27-1.7 0.087-3.41 0.157-5.13 0.21-1.713 0.047-3.387 0.07-5.02 0.07zM298.7 40.75v0c-0.8 0-1.71-0.023-2.73-0.07-1.013-0.053-2.043-0.13-3.09-0.23-1.053-0.1-2.053-0.2-3-0.3-0.953-0.1-1.763-0.233-2.43-0.4v0-3.9c0.867 0.067 1.907 0.133 3.12 0.2 1.22 0.067 2.52 0.117 3.9 0.15 1.387 0.033 2.73 0.05 4.03 0.05v0c1.433 0 2.707-0.133 3.82-0.4 1.12-0.267 2.003-0.767 2.65-1.5 0.653-0.733 0.98-1.767 0.98-3.1v0-2.15c0-1.5-0.41-2.65-1.23-3.45-0.813-0.8-2.053-1.2-3.72-1.2v0h-3.75c-3.2 0-5.677-0.7-7.43-2.1-1.747-1.4-2.62-3.8-2.62-7.2v0-2c0-3.533 0.957-6.06 2.87-7.58 1.92-1.513 4.647-2.27 8.18-2.27v0c1.167 0 2.417 0.057 3.75 0.17 1.333 0.12 2.633 0.263 3.9 0.43 1.267 0.167 2.317 0.333 3.15 0.5v0 3.9c-1.5-0.1-3.177-0.21-5.03-0.33-1.847-0.113-3.587-0.17-5.22-0.17v0c-1.4 0-2.61 0.157-3.63 0.47-1.013 0.32-1.797 0.88-2.35 1.68-0.547 0.8-0.82 1.933-0.82 3.4v0 1.5c0 1.8 0.483 3.05 1.45 3.75 0.967 0.7 2.317 1.05 4.05 1.05v0h4.05c2.1 0 3.823 0.383 5.17 1.15 1.353 0.767 2.363 1.817 3.03 3.15 0.667 1.333 1 2.85 1 4.55v0 2.6c0 2.6-0.533 4.6-1.6 6-1.067 1.4-2.5 2.357-4.3 2.87-1.8 0.52-3.85 0.78-6.15 0.78z" fill="#ffffff" fill-rule="nonzero" stroke="none" stroke-width="1" stroke-linecap="butt" stroke-linejoin="miter" stroke-miterlimit="10" stroke-dasharray="" stroke-dashoffset="0" font-family="none" font-weight="none" font-size="none" text-anchor="none" style="mix-blend-mode: normal" opacity="1"></path></g></svg></g></svg></g></svg></g></svg></g><g transform="matrix(1,0,0,1,34.16377323809138,0)"><svg viewBox="0 0 144.83089475097435 144.83089475097435" height="144.83089475097435" width="144.83089475097435"><g><svg xmlns="http://www.w3.org/2000/svg" xmlns:xlink="http://www.w3.org/1999/xlink" version="1.1" x="0" y="0" viewBox="2 2 60 60" style="enable-background:new 0 0 64 64;" xml:space="preserve" height="144.83089475097435" width="144.83089475097435" class="icon-icon-0" id="icon-0"><path d="M41 6c-2.606 0-5.091 0.499-7.396 1.37L16.243 3.03l-0.485 1.94 14.959 3.74c-4.73 2.671-8.32 7.117-9.868 12.432l-8.333-5-1.029 1.715 8.879 5.327C20.136 24.424 20 25.696 20 27v15c0 0.552 0.448 1 1 1h4v10c0 0.552 0.448 1 1 1h13v7c0 0.552 0.448 1 1 1h21c0.552 0 1-0.448 1-1V27C62 15.42 52.58 6 41 6zM60 60H41v-7c0-0.552-0.448-1-1-1H27v-3.09c2.833-0.478 5-2.942 5-5.91h-2c0 1.858-1.28 3.411-3 3.858V42c0-0.552-0.448-1-1-1h-4V27c0-0.92 0.088-1.819 0.215-2.705l9.27 5.562 1.029-1.715-9.88-5.928c1.507-5.774 5.648-10.492 11.077-12.756l6.046 1.511 0.485-1.94-2.76-0.69C38.624 8.125 39.797 8 41 8c10.477 0 19 8.523 19 19V60z" fill="#ffffff"></path><path d="M51 19h-1.625l-0.039-0.094 1.148-1.148c0.188-0.188 0.293-0.442 0.293-0.707s-0.105-0.52-0.293-0.707l-2.829-2.829c-0.375-0.375-1.039-0.375-1.414 0l-1.148 1.148L45 14.625V13c0-0.552-0.448-1-1-1h-4c-0.552 0-1 0.448-1 1v1.625l-0.094 0.039-1.148-1.148c-0.188-0.188-0.442-0.293-0.707-0.293s-0.52 0.105-0.707 0.293l-2.829 2.829c-0.188 0.188-0.293 0.442-0.293 0.707s0.105 0.52 0.293 0.707l1.148 1.148L34.625 19H33c-0.552 0-1 0.448-1 1v4c0 0.552 0.448 1 1 1h1.625l0.039 0.094-1.148 1.148c-0.188 0.188-0.293 0.442-0.293 0.707s0.105 0.52 0.293 0.707l2.829 2.829c0.375 0.375 1.039 0.375 1.414 0l1.148-1.148L39 29.375V31c0 0.552 0.448 1 1 1h4c0.552 0 1-0.448 1-1v-1.625l0.094-0.039 1.148 1.148c0.188 0.188 0.442 0.293 0.707 0.293s0.52-0.105 0.707-0.293l2.829-2.829c0.188-0.188 0.293-0.442 0.293-0.707s-0.105-0.52-0.293-0.707l-1.148-1.148L49.375 25H51c0.552 0 1-0.448 1-1v-4C52 19.448 51.552 19 51 19zM50 23h-1.294c-0.405 0-0.771 0.245-0.925 0.619l-0.548 1.33c-0.154 0.374-0.068 0.803 0.218 1.088l0.913 0.913-1.414 1.414-0.913-0.913c-0.286-0.286-0.716-0.372-1.088-0.218l-1.33 0.548C43.245 27.936 43 28.301 43 28.706V30h-2v-1.294c0-0.405-0.245-0.771-0.619-0.925l-1.33-0.548c-0.373-0.154-0.803-0.068-1.088 0.218l-0.913 0.913-1.414-1.414 0.913-0.913c0.286-0.285 0.372-0.714 0.218-1.088l-0.548-1.33C36.064 23.245 35.699 23 35.294 23H34v-2h1.294c0.405 0 0.771-0.245 0.925-0.619l0.548-1.33c0.154-0.374 0.068-0.803-0.218-1.088l-0.913-0.913 1.414-1.414 0.913 0.913c0.285 0.286 0.715 0.372 1.088 0.218l1.33-0.548C40.755 16.064 41 15.699 41 15.294V14h2v1.294c0 0.405 0.245 0.771 0.619 0.925l1.33 0.548c0.372 0.154 0.802 0.068 1.088-0.218l0.913-0.913 1.414 1.414-0.913 0.913c-0.286 0.285-0.372 0.714-0.218 1.088l0.548 1.33C47.936 20.755 48.301 21 48.706 21H50V23z" fill="#ffffff"></path><path d="M42 18c-2.206 0-4 1.794-4 4s1.794 4 4 4 4-1.794 4-4S44.206 18 42 18zM42 24c-1.103 0-2-0.897-2-2s0.897-2 2-2 2 0.897 2 2S43.103 24 42 24z" fill="#ffffff"></path><path d="M4.833 11.753l-1.49 1.49 1.414 1.414 1.49-1.49C6.771 13.515 7.363 13.769 8 13.899V16h2v-2.101c0.637-0.13 1.229-0.384 1.753-0.732l1.49 1.49 1.414-1.414-1.49-1.49c0.348-0.524 0.602-1.116 0.732-1.753H16V8h-2.101c-0.13-0.637-0.384-1.229-0.732-1.753l1.49-1.49-1.414-1.414-1.49 1.49C11.229 4.485 10.637 4.231 10 4.101V2H8v2.101c-0.637 0.13-1.229 0.384-1.753 0.732l-1.49-1.49L3.343 4.757l1.49 1.49C4.485 6.771 4.231 7.363 4.101 8H2v2h2.101C4.231 10.637 4.485 11.229 4.833 11.753zM9 6c1.654 0 3 1.346 3 3s-1.346 3-3 3-3-1.346-3-3S7.346 6 9 6z" fill="#ffffff"></path><rect x="8" y="20" width="2" height="2" fill="#ffffff"></rect><rect x="8" y="24" width="2" height="2" fill="#ffffff"></rect><rect x="8" y="28" width="2" height="2" fill="#ffffff"></rect><rect x="12" y="24" width="2" height="2" fill="#ffffff"></rect><rect x="4" y="24" width="2" height="2" fill="#ffffff"></rect></svg></g></svg></g><g></g></svg></g></svg></g></svg></g><defs></defs></svg><rect width="333.90454557049503" height="333.90454557049503" fill="none" stroke="none" visibility="hidden"></rect></g></svg></g></svg>